<?xml version="1.0" standalone="no"?><!-- Generator: Gravit.io --><svg xmlns="http://www.w3.org/2000/svg" xmlns:xlink="http://www.w3.org/1999/xlink" style="isolation:isolate" width="528" height="509"><path d=" M 507.55032737764975 439.3656240332662 C 501.41249583842 399.1839242264127 493.8830318499614 389.30109235977284 480.90422816557555 366.22701280847616 C 491.5831761180781 318.9619099040739 474.0779047830431 271.3716208295246 454.94662079680404 253.5712126462633 C 471.0895572078572 203.33701862312796 440.4443457995784 176.81313796244638 397.875041615803 161.8121585482762 C 396.92287204527815 161.4728338489924 384.5446676284543 157.4433530449976 383.56320053268246 157.1323054039875 C 375.31594717567435 179.01874850779086 345.8426367772724 253.4298273548951 352.20019975585416 281.50894622062737 C 352.20019975585416 292.7207998261287 352.258794806348 330.5272267379958 365.1350571523695 357.64492562242407 C 368.4896237931419 364.74246724910967 372.70846742869844 371.1472209480909 378.06991454888487 376.10984467511605 C 380.51625790700274 410.38163930277716 394.76950393962954 440.58153753903304 426.19109976695165 460.3330627431761 C 430.62967484186004 469.82001579398485 426.8209965597604 478.9817826746468 422.7046942625681 480.80565293329704 C 439.40428365331275 479.67457060235114 454.053046276773 451.3975123287034 424.7555210298525 451.3975123287034 C 395.45799578293213 451.3975123287034 394.57907002552446 465.5925955820746 395.64842969703705 479.73112471889846 C 396.6884918433027 493.81309973917513 406.0783486849408 507.83852064290437 431.2595716346689 507.72541240980973 L 499.77183442459227 507.72541240980973 C 519.1228498501832 507.72541240980973 528.0000000000001 498.87469317015797 528.0000000000001 485.0330731452074 C 527.9414049495064 467.0347255540307 521.2029741427147 448.59808355961223 507.55032737764975 439.3656240332662 Z " fill="rgb(0,179,0)" stroke-width="2.083333333333334" stroke="rgba(0,0,0,0)" stroke-linejoin="miter" stroke-linecap="butt"/><path d=" M 97.47286649650428 455.2573307830564 C 117.71745644212629 447.94771121931836 126.71179669293087 417.42262681291555 125.12973032959718 407.9356737621067 C 132 411.66824545422827 162.70380645877265 414.8776915682873 173.47064698701593 412.247925148838 C 174.0126512040839 411.8944619204174 219.67284430140944 408.98192491823164 219.67284430140944 408.98192491823164 L 131.78026856064812 267.59663354999265 L 106.58439684829654 262.7188409977884 C 105.41249583841972 262.59159423555695 104.3138386416602 262.3795162985046 103.18588391965378 262.2098539488627 C 101.67706136943735 262.23813100713636 99.21606924869604 262.4502089441887 92.81455998224394 262.63400982296747 C 61.17323271556984 264.7830662517647 29.57585173676614 294.94054890061005 38.643435800688025 334.50015342544333 C 17.783597824880673 358.9739473612855 4.790145377871454 391.30876349720177 16.948618355343427 443.5364901286293 C 8.364443457995733 448.4284212099704 0.014648762623423295 462.3124568223315 0.014648762623423295 471.3186998824884 C 0.014648762623423295 495.4531691190468 10.239485073798647 506.83468507418996 26.089446232382613 507.27297947743153 C 51.46110309621571 508.0081829925462 94.39662634557763 507.951628875999 110.64210409499503 507.951628875999 C 126.85828431916548 507.951628875999 125.8182221728998 495.91974058056184 125.8182221728998 490.4622683337478 C 125.8182221728998 477.6103453483749 114.1871046498724 465.4936258781168 97.47286649650428 455.2573307830564 Z " fill="rgb(0,179,0)" stroke-width="2.083333333333334" stroke="rgba(0,0,0,0)" stroke-linejoin="miter" stroke-linecap="butt"/><path d=" M 414.6918211075354 453.31060137580374 C 414.6918211075354 453.31060137580374 430.48318721562555 463.6882817622325 430.48318721562555 478.2792438314348 C 430.48318721562555 492.870205900637 415.99556098102346 508.2670641306383 408.07058040173143 503.3751330492972 C 401.7130174231497 499.458760478397 395.9121074242595 492.7288206092688 395.64842969703716 481.20591936275736 C 395.0038841416049 453.09852343875144 409.1985351237378 453.9751122452346 414.6918211075354 453.31060137580374 Z " fill="rgb(0,128,0)" stroke-width="2.083333333333334" stroke="rgba(0,0,0,0)" stroke-linejoin="miter" stroke-linecap="butt"/><path d=" M 110.64210409499503 509.4264235198579 C 126.85828431916548 509.4264235198579 125.8182221728998 497.39453522442074 125.8182221728998 491.9370629776067 C 125.8182221728998 479.3254949875597 114.56797247808234 467.420853454354 98.33714349128843 457.2976665923881 C 50.39174342470315 490.22630095205096 16.933969592719976 445.0254233016249 16.933969592719976 445.0254233016249 C 8.349794695372282 449.9173543829659 -2.842170943040401e-14 463.80138999532704 -2.842170943040401e-14 472.8076330554839 C -2.842170943040401e-14 496.9421022920423 10.224836311175196 508.3236182471856 26.07479746975916 508.76191265042706 C 51.46110309621571 509.4829776364051 94.39662634557763 509.4264235198579 110.64210409499503 509.4264235198579 Z " fill="rgb(0,128,0)" stroke-width="2.083333333333334" stroke="rgba(0,0,0,0)" stroke-linejoin="miter" stroke-linecap="butt"/><linearGradient id="_lgradient_0" x1="0%" y1="50%" x2="100%" y2="50%"><stop offset="0%" stop-opacity="1" style="stop-color:rgb(0,179,0)"/><stop offset="97.72727272727273%" stop-opacity="1" style="stop-color:rgb(255,255,0)"/><stop offset="100%" stop-opacity="1" style="stop-color:rgb(255,255,0)"/><stop offset="100%" stop-opacity="1" style="stop-color:rgb(255,221,0)"/><stop offset="100%" stop-opacity="1" style="stop-color:rgb(0,0,0)"/></linearGradient><path d=" M 383.9147708356455 159.24333385900343 C 396.6005992675621 149.4594716963213 390.0086560870049 125.77743539214126 381.1168571745646 113.83037827152506 C 383.29952280546013 106.95905311102862 386.71268449672635 98.00936416741911 385.0866718455223 92.32567545441589 C 391.75185883919664 87.74479201408496 391.5614249250917 81.15623743632503 388.704916213517 72.06516320134725 C 376.9273110642549 35.07877097941592 344.90511596937085 0.4393745941973606 324.27965819553884 0.4393745941973606 C 218.57418710464987 0.4393745941973606 200.92242814338033 90.10592637993454 198.1245144822994 118.6374781780452 C 88.0830096548662 129.53828414253644 84.90422816557538 195.91867843992463 109.01609144379088 239.49362523961594 C 92.12606813894124 317.3969207835156 158.39707024747528 352.13528687269195 161.092442570192 353.93088007306864 C 156.82965264676506 389.2489258568547 191.7230052158473 450.55358819412317 206.005548773721 462.98135530539145 C 209.46265675285764 464.861779680589 225.1221839973366 474.15079332348233 224.71201864387973 489.024525975421 C 224.41904339141053 499.5153145949443 223.33503495727444 509.2991767576264 219.73143935190325 509.3981464615843 C 219.8632782155144 509.3981464615843 219.9658195538786 509.426423519858 220.06836089224282 509.426423519858 L 288.5806236821663 509.426423519858 C 307.93163910775723 509.426423519858 316.8087892575741 500.589842809343 316.8087892575741 486.7340842552557 C 316.8087892575741 468.9053990137207 310.1143047386528 450.62428083980734 296.6813894129398 441.3352671969141 C 298.3366995893908 429.1619936101088 299.28886915991575 413.9347977297494 297.5896126955943 397.63307363499143 C 310.17289978914664 393.36323783567065 323.15170347353245 387.6229950061201 327.67817112418163 385.55876975214386 C 327.67817112418163 385.6153238686911 327.6928198868051 385.67187798523844 327.6928198868051 385.7425706309225 C 409.53545666407734 342.42211735569407 418.4712018643881 310.04488563236737 423.2466984796361 280.8629614939628 C 438.8036843857509 185.7106604031378 383.9147708356455 159.24333385900343 383.9147708356455 159.24333385900343 Z  M 351.5703029630453 167.4860963457718 C 331.9116635223617 167.4860963457718 330.0805681944292 140.49564422357497 335.7056930418379 134.45849228215116 C 298.9080013317058 106.63386694088172 316.35467761624693 91.03906930296495 333.3472422594608 94.03643747997162 C 341.2868716013763 95.4361518645172 366.7903673288205 100.21497471276365 378.2456997003664 99.25355473145964 C 380.7506381089781 103.25475847718079 379.76917101320623 110.62093215746606 378.582621240706 116.60152998234258 C 381.3512373765399 119.16060375610769 386.1120852291645 124.98567776047915 385.15991565863965 135.98545342892814 C 384.6179114415715 142.58814653582488 375.98979025635344 167.4860963457718 351.5703029630453 167.4860963457718 Z " fill-rule="evenodd" fill="url(#_lgradient_0)" stroke-width="2.083333333333334" stroke="rgba(0,0,0,0)" stroke-linejoin="miter" stroke-linecap="butt"/><path d=" M 205.25846187992454 461.1248203748383 C 205.25846187992454 461.1248203748383 226.77749417378766 466.2005523349581 226.77749417378766 486.09346283046926 C 226.76284541116422 502.21138604644847 223.3350349572745 507.951628875999 219.67284430140944 507.951628875999 C 200.4390189768062 507.951628875999 190.63899678171128 493.5161906273018 190.375319054489 485.20273549484926 C 189.73077349905674 464.87153059609665 199.765175896127 461.59139183635335 205.25846187992454 461.1248203748383 Z " fill="rgb(0,128,0)" stroke-width="2.083333333333334" stroke="rgba(0,0,0,0)" stroke-linejoin="miter" stroke-linecap="butt"/><path d=" M 332.26323382532473 133.9451176195963 C 286.36866052602386 99.26330564696724 308.12207302186226 79.79455102556074 329.3188325380092 83.52712271768226 C 339.2213960714683 85.26616180151157 371.0531572522474 91.23262109725127 385.32105204749763 90.04498464975808 C 388.4558872489181 95.05002396419374 387.2400399511709 104.21179084485564 385.76051492620144 111.67693422909863 C 389.21762290533803 114.87224181402087 395.15037176783943 122.1253072612115 393.96382199533923 135.85381905306753 C 393.2606813894131 144.08244301069905 382.5231383864168 175.14479152430113 352.068360892243 175.14479152430113 C 327.53168349794703 175.14479152430113 325.24647652868725 141.4809536495234 332.26323382532473 133.9451176195963 Z " fill="rgb(0,128,0)" stroke-width="2.083333333333334" stroke="rgba(0,0,0,0)" stroke-linejoin="miter" stroke-linecap="butt"/><path d=" M 313.10265231383875 -0.42746329677810024 C 217.53412495838427 5.779350994287583 200.81988680501615 89.70565995047426 198.109865719676 117.1626835341863 C 198.109865719676 117.1626835341863 244.09233159471762 147.41913588698944 251.41671290644774 150.37408847658565 C 251.4167129064478 150.37408847658565 225.7960270780158 11.236823241101618 313.10265231383875 -0.42746329677810024 Z " fill="rgb(0,128,0)" stroke-width="2.083333333333334" stroke="rgba(0,0,0,0)" stroke-linejoin="miter" stroke-linecap="butt"/><path d=" M 297.19409610476094 317.08148552887627 C 308.8105648651649 288.06922374011367 285.70946620796815 232.39169599930108 241.14793030740213 208.32791940842685 C 271.45622017534134 241.36966200118428 280.2015314615471 277.29566453785384 268.70225280213083 327.5015815027155 C 287.7163466873822 349.3456090191085 295.24581067584074 373.77698736754024 297.5896126955944 396.1582789911324 C 310.17289978914675 391.88844319181163 323.1517034735325 386.14820036226115 327.6781711241817 384.08397510828485 C 325.4662079680392 359.341549118843 319.0500499389636 342.3753141546543 297.19409610476094 317.08148552887627 Z " fill="rgb(0,128,0)" stroke-width="2.083333333333334" stroke="rgba(0,0,0,0)" stroke-linejoin="miter" stroke-linecap="butt"/><path d=" M 376.03373654422387 102.34550499879484 C 377.4839640439464 102.69896822721543 378.67051381644666 103.78763497075087 378.67051381644666 105.30045758839103 C 378.67051381644666 107.09605078876768 377.16169126623026 108.52404223158686 375.3159471756743 108.52404223158686 C 373.4555543224949 108.52404223158686 371.96138053490193 107.09605078876766 371.96138053490193 105.30045758839103 C 371.96138053490193 104.6359467189603 372.3275996004884 104.11282114089784 372.7084674286984 103.60383409197217 C 370.6722894240374 104.35317613622385 368.7679502829876 104.98940994738092 367.37631783375883 104.98940994738092 C 365.89679280878937 104.98940994738092 364.197536344468 104.63594671896033 362.4543335922762 104.18351378658195 C 362.68871379425156 104.6218081898235 363.06958162246156 105.04596406392821 363.06958162246156 105.59736670026433 C 363.06958162246156 107.39295990064099 361.56075907224516 108.835089872597 359.7150149816892 108.835089872597 C 357.8546221285098 108.835089872597 356.36044834091683 107.39295990064096 356.36044834091683 105.59736670026433 C 356.36044834091683 104.35317613622385 357.224725335701 103.47658732974074 358.2794362445901 102.93932322254145 C 350.2519143269339 100.26714121568173 341.7263344800801 96.5769851109707 340.5837309954502 103.13726263045697 C 339.7780490511599 107.67573048337744 345.88658306514276 114.22186947372691 355.0127621795585 117.57270087915418 C 355.0127621795585 117.57270087915418 358.42592387082476 112.03039745751923 368.3284874042838 112.65249273953944 C 375.9604927311066 111.7334883456459 380.00355121518163 115.02776563452585 380.00355121518163 115.02776563452585 C 384.16379980024436 110.84276101002598 384.77904783042965 105.07424112220181 384.5886139163247 103.12312410132012 C 384.1784485628677 99.61676887538783 380.2525801797804 100.73371267719693 376.03373654422387 102.34550499879484 Z " fill="rgb(255,255,255)" stroke-width="2.083333333333334" stroke="rgba(0,0,0,0)" stroke-linejoin="miter" stroke-linecap="butt"/><path d=" M 365.0471645766287 131.81019971993587 C 365.0471645766287 131.81019971993587 357.76672955276894 129.13801771307615 357.76672955276894 125.63166248714384 C 357.76672955276894 122.84637224718955 359.0704694262569 120.5276534687504 363.28931306181346 120.2307443568771 C 367.50815669737 119.93383524500379 369.19276439906787 121.88495226588552 373.68993452447023 121.9839219698433 C 376.7808234380203 122.08289167380104 379.2271667961382 117.65753205397519 382.2741094218179 119.83486554104607 C 384.91088669404076 121.71528991624362 382.31805570968834 127.04551540082625 380.7506381089781 129.16629477134984 C 376.9419598268784 129.44906535408631 382.25946065919453 122.60601725186353 379.3736544223728 123.48260605834665 C 378.0845633115083 123.85020781590404 377.10309621573646 125.73063219110165 374.01220730218637 125.95684865729083 C 367.21518144490085 126.4092815896692 362.3810897791589 122.22427696516934 362.190655865054 125.73063219110165 C 361.97092442570204 129.32181859185485 369.14881811119756 128.58661507674 365.0471645766287 131.81019971993587 Z " fill="rgb(255,255,255)" stroke-width="2.083333333333334" stroke="rgba(0,0,0,0)" stroke-linejoin="miter" stroke-linecap="butt"/><path d=" M 388.3972921984243 136.95662432573977 C 388.3972921984243 136.95662432573977 361.28243258239945 132.9554205800186 345.9744756408835 151.39206257443695 C 345.9744756408835 158.16441803097558 351.73143935190336 161.2324788536664 351.73143935190336 161.2324788536664 C 351.73143935190336 161.2324788536664 357.76672955276894 139.72777603655723 388.3972921984243 136.95662432573977 Z " fill="rgb(255,255,255)" stroke-width="2.083333333333334" stroke="rgba(0,0,0,0)" stroke-linejoin="miter" stroke-linecap="butt"/></svg>